<?xml version="1.0" encoding="UTF-8"?>
<svg width="210px" height="140px" viewBox="0 0 210 140" version="1.1" xmlns="http://www.w3.org/2000/svg" xmlns:xlink="http://www.w3.org/1999/xlink">
    <title>C09024BB-E6E0-462A-914D-90B755B302DC</title>
    <g id="Page-1" stroke="none" stroke-width="1" fill="none" fill-rule="evenodd">
        <g id="11.Easy-Estimator_v1.9_design-countertop-card_side-radius-2-Copy" transform="translate(-30.000000, -781.000000)">
            <g id="Radius-out" transform="translate(30.000000, 781.000000)">
                <g id="Group-7" transform="translate(45.000000, 44.000000)">
                    <path d="M0,0 L120,0 L120,40 C99.6333337,46.6666667 79.466667,50 59.5,50 C39.533333,50 19.6999996,46.6666667 0,40 L0,0 Z" id="Combined-Shape-Copy-5" fill="#A1A1A1"></path>
                    <path d="M119.716701,39.1233036 L120,39.0482704 L120,41.1231755 C119.974529,41.1318192 119.948701,41.13999 119.922517,41.1476879 C97.3978012,47.7697214 75.9966776,51.0823354 55.7200413,51.0823354 C35.6975227,51.0823354 17.3207143,47.8520748 0.595408592,41.3887582 C0.450049318,41.3319374 0.341029863,41.2893218 0.268350226,41.2609113 C0.127010051,41.2056616 0.0375599755,41.1597497 0,41.1231755 L0,39 L0.367680562,39.1523832 C17.108669,45.7713646 35.5574115,49.0823354 55.7200413,49.0823354 C75.5095818,49.0823354 96.4011844,45.8926052 118.395706,39.5100862 L119.716701,39.1233036 Z" id="Path-2" fill="#15B6E4" fill-rule="nonzero"></path>
                </g>
            </g>
        </g>
    </g>
</svg>