<svg id="Layer_1" data-name="Layer 1" xmlns="http://www.w3.org/2000/svg" xmlns:xlink="http://www.w3.org/1999/xlink" viewBox="0 0 192.3 66.4"><defs><style>.cls-1{fill:url(#linear-gradient);}.cls-2{fill:gray;}.cls-3{fill:url(#linear-gradient-2);}.cls-4{fill:#c1272d;}</style><linearGradient id="linear-gradient" x1="123.78" y1="20.23" x2="152.87" y2="132.67" gradientTransform="matrix(1, 0, 0, -1, -46.9, 95.3)" gradientUnits="userSpaceOnUse"><stop offset="0.29" stop-color="#b3b4b4"/><stop offset="0.86" stop-color="#fff"/></linearGradient><linearGradient id="linear-gradient-2" x1="203.98" y1="33.42" x2="180.79" y2="84.25" gradientTransform="matrix(1, 0, 0, -1, -46.9, 95.3)" gradientUnits="userSpaceOnUse"><stop offset="0.16" stop-color="#b3b4b4"/><stop offset="0.73" stop-color="#fff"/></linearGradient></defs><polygon class="cls-1" points="0.3 0 192.3 0 95.9 38.3 0.3 0"/><polygon class="cls-2" points="0 1 95.6 39.1 95.6 66.4 0 26.8 0 1"/><polygon class="cls-3" points="192.1 1 96.3 39.1 96.3 66.3 192.1 26.8 192.1 1"/><polygon class="cls-4" points="107.9 57.7 107.9 38.3 108.6 38.3 108.6 57.7 107.9 57.7"/><polygon class="cls-4" points="108.3 61.4 111.6 56.3 105.2 56.3 108.3 61.4"/><polygon class="cls-4" points="108.2 34.8 111.4 39.9 105.1 39.9 108.2 34.8"/></svg>