<svg id="Layer_1" data-name="Layer 1" xmlns="http://www.w3.org/2000/svg" xmlns:xlink="http://www.w3.org/1999/xlink" viewBox="0 0 192.3 84"><defs><style>.cls-1{fill:url(#linear-gradient);}.cls-2{fill:gray;}.cls-3{fill:url(#linear-gradient-2);}.cls-4{fill:#c1272d;}</style><linearGradient id="linear-gradient" x1="125.57" y1="52.15" x2="159.25" y2="168.71" gradientTransform="matrix(1, 0, 0, -1, -47, 113.5)" gradientUnits="userSpaceOnUse"><stop offset="0.32" stop-color="#b3b4b4"/><stop offset="0.78" stop-color="#fff"/></linearGradient><linearGradient id="linear-gradient-2" x1="208.23" y1="36.98" x2="171.09" y2="111.17" gradientTransform="matrix(1, 0, 0, -1, -47, 113.5)" gradientUnits="userSpaceOnUse"><stop offset="0.16" stop-color="#b3b4b4"/><stop offset="0.73" stop-color="#fff"/></linearGradient></defs><polygon class="cls-1" points="0.3 0 192.3 0 95.9 38.4 0.3 0"/><polygon class="cls-2" points="0 1 95.6 39.1 95.6 84 0 44.5 0 1"/><polygon class="cls-3" points="192.1 1 96.3 39.1 96.3 84 192.1 44.5 192.1 1"/><polygon class="cls-4" points="107.7 75.2 107.7 38.6 108.4 38.6 108.5 75.2 107.7 75.2"/><polygon class="cls-4" points="108.1 78.9 111.3 73.7 105 73.7 108.1 78.9"/><polygon class="cls-4" points="108 35.1 111.2 40.3 104.8 40.3 108 35.1"/></svg>