<svg xmlns="http://www.w3.org/2000/svg" width="30.077" height="32.988" viewBox="0 0 30.077 32.988">
  <g id="Draw" transform="translate(-936.706 -382.369)">
    <path id="Path_62" data-name="Path 62" d="M-10937.865-21763.73l-1.158,7.168s-.049.082,0,0,7.07-1.156,7.07-1.156l14.424-13.687s.035-.035.076-.082c.4-.449.75-.734.736-.988s-.551-.672-.551-.672l-4.742-4.832s-.852-.7-.973-.66C-10923.5-21778.512-10937.865-21763.73-10937.865-21763.73Z" transform="translate(11882.504 22161.998)" fill="current" stroke="current" stroke-width="2"/>
    <path id="Path_63" data-name="Path 63" d="M-10935.249-21723.289c1.528,1.465,4.788,4.762,4.788,4.762l-4.512.648-1.113-.957Z" transform="translate(11880.996 22122.049)" fill="#fff"/>
    <path id="Path_64" data-name="Path 64" d="M-10956.19-21695.5a5.974,5.974,0,0,0-2.511,1.416c-.731.914-.885,1.668-.143,2.375s1.7.688,3.979,0,3.17-1.869,5.153-2.744a9.812,9.812,0,0,1,5.16-.561,9.058,9.058,0,0,1,5.927,3.723" transform="translate(11896.275 22106.307)" fill="none" stroke="current" stroke-linecap="round" stroke-width="0.5"/>
    <path id="Path_66" data-name="Path 66" d="M945.528,395.313l13.194-13.792" transform="translate(1.209 2.048)" fill="none" stroke="#fff" stroke-width="1"/>
    <path id="Path_67" data-name="Path 67" d="M945.528,395.313l13.194-13.792" transform="translate(3.78 4.616)" fill="none" stroke="#fff" stroke-width="1"/>
    <path id="Path_68" data-name="Path 68" d="M945.528,395.313l13.194-13.792" transform="translate(6.349 7.185)" fill="none" stroke="#fff" stroke-width="1"/>
  </g>
</svg>
