<?xml version="1.0" encoding="utf-8"?>
<!-- Generator: Adobe Illustrator 25.2.3, SVG Export Plug-In . SVG Version: 6.00 Build 0)  -->
<svg version="1.1" xmlns="http://www.w3.org/2000/svg" xmlns:xlink="http://www.w3.org/1999/xlink" x="0px" y="0px"
	 viewBox="0 0 734.3 583.7" enable-background="new 0 0 734.3 583.7" xml:space="preserve">
<g id="Layer_1">
	<polygon fill="#E6E6E6" points="428.5,13.8 20.8,185.9 20.8,444.3 428.5,240.4 	"/>
	<path fill="#393C3D" d="M419.1,242.7v71.9v0.1c0,0,0.1-0.1,0.1-0.1c2.3-1.3,4.6-2.6,6.9-3.9L528,252.9l2.2-1.3l0.1-63.6
		l-105.6,60.3l-3.3-1.9V244L419.1,242.7 M433.2,246.3l68.1-39l13.2-7.5l2.2-1.2v52.3v0l-83.3,47.2l0-2.6l-0.1-22.7v-2.4L433.2,246.3
		z"/>
	<path fill="#595959" d="M514.6,199.8l2.2-1.2v52.3l-2.3-1.4h0l0.1-23v-2.4v-9.2V199.8z"/>
	<path fill="#646768" d="M433.4,298.1l83.3-47.2v0l-2.3-1.4l-81,46L433.4,298.1 M514.6,226.5v-2.4l-81.2,46.3v2.4L514.6,226.5z"/>
	<path fill="#444647" d="M514.6,199.8v15.1l-13.2-7.5L514.6,199.8z"/>
	<path fill="#515151" d="M433.3,270.4l-0.1-24.2l68.1-39l13.2,7.5v9.2L433.3,270.4z"/>
	<path fill="#4C4C4C" d="M433.4,295.5l-0.1-22.7l81.2-46.3l-0.1,23h0L433.4,295.5z"/>
	<path fill="#A8A8A8" d="M417,347.6l2.1,1.2L527.6,285v11.9L417,360v-12.1L417,347.6z"/>
	<path fill="#777777" d="M417,315.9l2.1,1.1v31.8l-2.1-1.2V315.9z"/>
	<path fill="#919191" d="M417,313.4l2.1,1.1v0.1c0,0,0.1-0.1,0.1-0.1c2.3-1.3,4.6-2.6,6.9-3.9L528,252.9l2.2,1.1l-111.1,63l-2.1-1.1
		V313.4z"/>
	<path fill="#292D2E" d="M417,241.5l2.1,1.2v71.9l-2.1-1.1V241.5z"/>
	<path fill="#A0A0A0" d="M419.1,236.6L419.1,236.6L419.1,236.6l-2.1-1.2v-2.2l2.1,1.2v0h0l109.2-62.6l1.9,0.9l5.5,3.2l-111.2,63.7
		L419.1,236.6z"/>
	<path fill="#BABABA" d="M424.6,236.6l0.2,11.8l-3.3-1.9V244l-2.4-1.3l-2.1-1.2v-9.1l2.1,1.2l0,0L424.6,236.6z"/>
	<path fill="#777777" d="M493.3,174.7c-0.1,0-0.1,0-0.1-0.1c-0.7-0.4-1.6-0.4-2.5,0l4.5,2.6c1-0.4,1.8-0.4,2.5,0L493.3,174.7
		C493.3,174.8,493.3,174.7,493.3,174.7 M485.3,182.5c0,1.5,0.5,2.5,1.4,3h0l0,0c0.1,0,0.1,0,0.1,0.1l4.4,2.5
		c-0.8-0.5-1.3-1.4-1.4-2.6c0-0.1,0-0.3,0-0.4c0-1.5,0.5-2.9,1.4-4.4c0.8-1.3,1.7-2.2,2.8-2.9l-4.4-2.7c-1.1,0.6-2.1,1.6-2.9,3
		C485.8,179.6,485.3,181,485.3,182.5 M441.1,207.4c0,1.5,0.4,2.5,1.3,3l0.1,0c0,0,0.1,0,0.1,0.1l4.4,2.5c-0.8-0.5-1.3-1.4-1.3-2.6
		c0-0.1,0-0.3,0-0.4c0-1.5,0.4-2.9,1.3-4.4c0.7-1.2,1.6-2.1,2.5-2.7l-4.4-2.7c-1,0.6-1.9,1.6-2.7,2.8
		C441.6,204.5,441.1,206,441.1,207.4 M453.4,202.1l-4.3-2.4c0,0,0,0,0,0c0,0-0.1,0-0.1-0.1c-0.8-0.4-1.7-0.4-2.8,0.1l4.5,2.7
		C451.6,201.8,452.6,201.8,453.4,202.1 M483,185.6l-4.3-2.4c0,0,0,0,0,0c-0.1,0-0.1-0.1-0.1-0.1c-0.7-0.4-1.6-0.4-2.6,0l4.5,2.6
		C481.4,185.2,482.3,185.2,483,185.6 M475.3,193.4c0-1.5,0.5-2.9,1.4-4.4c0.8-1.3,1.7-2.2,2.7-2.8l-4.4-2.7c-1.1,0.6-2,1.6-2.9,2.9
		c-0.9,1.5-1.4,3-1.4,4.4c0,1.5,0.5,2.5,1.4,3l0,0l0,0c0.1,0,0.1,0,0.1,0l4.4,2.5c-0.8-0.5-1.3-1.4-1.4-2.6
		C475.3,193.7,475.3,193.6,475.3,193.4 M508.1,166.5c-0.8-0.4-1.7-0.4-2.7,0l4.5,2.7c1-0.4,1.9-0.5,2.7-0.1l-4.3-2.5c0,0,0,0-0.1,0
		C508.2,166.5,508.1,166.5,508.1,166.5 M500.3,174.3c0,1.5,0.5,2.5,1.4,3l0.1,0.1c0,0,0.1,0,0.1,0l4.4,2.5c-0.8-0.5-1.3-1.4-1.4-2.6
		c0-0.1,0-0.3,0-0.4c0-1.5,0.5-2.9,1.4-4.4c0.8-1.2,1.6-2.2,2.6-2.8l-4.4-2.7c-1.1,0.6-2,1.6-2.8,2.9
		C500.7,171.4,500.3,172.8,500.3,174.3 M522.5,161.8l-4.4-2.7c-1,0.6-1.9,1.6-2.7,2.8c-0.9,1.5-1.4,3-1.4,4.4s0.5,2.5,1.4,3l0.1,0
		c0,0,0.1,0,0.1,0.1l4.4,2.5c-0.8-0.5-1.3-1.4-1.4-2.6c0-0.1,0-0.3,0-0.4c0-1.5,0.5-2.9,1.4-4.4
		C520.7,163.3,521.6,162.4,522.5,161.8 M522,158.6c0,0-0.1-0.1-0.1-0.1c-0.8-0.4-1.8-0.4-2.8,0.1l4.5,2.7c1.1-0.5,2-0.5,2.8-0.2
		L522,158.6C522.1,158.6,522.1,158.6,522,158.6 M433.8,208.1c-0.8-0.4-1.6-0.4-2.6,0l4.5,2.7c1-0.4,1.8-0.4,2.6-0.1l-4.3-2.4
		c0,0,0,0-0.1,0C433.8,208.2,433.8,208.2,433.8,208.1 M425.9,216c0,1.5,0.5,2.5,1.4,3h0l0,0c0,0,0.1,0,0.1,0.1l4.4,2.5
		c-0.8-0.5-1.3-1.4-1.4-2.6c0-0.1,0-0.3,0-0.4c0-1.5,0.5-2.9,1.4-4.4c0.8-1.3,1.7-2.2,2.7-2.8l-4.4-2.7c-1.1,0.6-2.1,1.6-2.9,2.9
		C426.4,213,425.9,214.5,425.9,216z"/>
	<path fill="#C4C4C4" d="M489.9,185.1c0,0.1,0,0.3,0,0.4c0.1,1.2,0.5,2.1,1.4,2.6c0.9,0.6,2,0.6,3.3-0.1c1.3-0.6,2.4-1.7,3.3-3.2
		c0.9-1.5,1.4-2.9,1.4-4.4c0-1.5-0.5-2.5-1.4-3.1c-0.1-0.1-0.2-0.1-0.3-0.2c-0.7-0.3-1.6-0.3-2.5,0c-0.1,0-0.3,0.1-0.4,0.2
		c0,0,0,0-0.1,0.1c-0.2,0.1-0.4,0.2-0.6,0.3c-1.1,0.6-2,1.6-2.8,2.9C490.3,182.2,489.9,183.7,489.9,185.1 M453.4,202.1
		c-0.8-0.4-1.8-0.3-2.8,0.2c0,0-0.1,0-0.1,0c0,0,0,0-0.1,0.1c-0.3,0.1-0.5,0.3-0.8,0.5c-1,0.6-1.8,1.5-2.5,2.7
		c-0.9,1.5-1.3,3-1.3,4.4c0,0.1,0,0.3,0,0.4c0.1,1.2,0.5,2.1,1.3,2.6c0.9,0.6,2,0.5,3.3-0.1c1.3-0.6,2.4-1.7,3.3-3.2
		c0.9-1.5,1.4-2.9,1.4-4.4c0-1.5-0.5-2.5-1.4-3.1C453.6,202.3,453.5,202.2,453.4,202.1 M475.3,193.8c0.1,1.2,0.5,2.1,1.4,2.6
		c0.9,0.6,2,0.6,3.3-0.1c1.3-0.7,2.4-1.7,3.3-3.2c0.9-1.5,1.4-2.9,1.4-4.4c0-1.5-0.5-2.5-1.4-3.1c-0.1-0.1-0.2-0.1-0.3-0.2
		c-0.8-0.3-1.6-0.3-2.6,0.1c-0.1,0-0.2,0.1-0.3,0.2c0,0,0,0-0.1,0.1c-0.2,0.1-0.4,0.2-0.6,0.3c-1,0.6-1.9,1.6-2.7,2.8
		c-0.9,1.5-1.4,3-1.4,4.4C475.3,193.6,475.3,193.7,475.3,193.8 M512.6,169.1c-0.8-0.4-1.7-0.3-2.7,0.1c-0.1,0-0.2,0.1-0.3,0.1
		c0,0-0.1,0-0.1,0c-0.2,0.1-0.5,0.2-0.7,0.4c-1,0.6-1.9,1.6-2.6,2.8c-0.9,1.5-1.4,3-1.4,4.4c0,0.1,0,0.3,0,0.4
		c0.1,1.2,0.5,2.1,1.4,2.6c0.9,0.6,2,0.6,3.3-0.1c1.3-0.7,2.4-1.7,3.3-3.2c0.9-1.5,1.4-2.9,1.4-4.4c0-1.5-0.5-2.5-1.4-3.1
		C512.8,169.2,512.7,169.1,512.6,169.1 M527,161.5c-0.1-0.1-0.2-0.2-0.3-0.2c-0.1-0.1-0.2-0.1-0.3-0.2c-0.8-0.4-1.8-0.3-2.8,0.2
		c0,0-0.1,0-0.1,0c0,0,0,0-0.1,0.1c-0.3,0.1-0.5,0.3-0.8,0.5c-1,0.6-1.8,1.5-2.5,2.7c-0.9,1.5-1.4,3-1.4,4.4c0,0.1,0,0.3,0,0.4
		c0.1,1.2,0.5,2.1,1.4,2.6c0.9,0.6,2,0.5,3.3-0.1c1.3-0.6,2.4-1.7,3.3-3.2c0.1-0.2,0.2-0.3,0.3-0.5c0.7-1.3,1.1-2.6,1.1-3.9
		C528,163,527.7,162.1,527,161.5 M434.6,211.3c-1.1,0.6-2,1.6-2.7,2.8c-0.9,1.5-1.4,3-1.4,4.4c0,0.1,0,0.3,0,0.4
		c0.1,1.2,0.5,2.1,1.4,2.6c0.9,0.6,2,0.6,3.3-0.1c1.3-0.6,2.4-1.7,3.3-3.2c0.9-1.5,1.4-2.9,1.4-4.4s-0.5-2.5-1.4-3.1
		c-0.1-0.1-0.2-0.1-0.3-0.2c-0.7-0.3-1.6-0.3-2.6,0.1c-0.1,0-0.2,0.1-0.4,0.2c0,0-0.1,0-0.1,0.1C435,211.1,434.8,211.2,434.6,211.3z
		"/>
	<path fill="#EEFCFF" d="M490,174.9c-0.1,0.1-0.3,0.1-0.4,0.2l4.4,2.7c0.2-0.1,0.4-0.2,0.6-0.3c0,0,0.1-0.1,0.1-0.1
		c0.1-0.1,0.3-0.1,0.4-0.2l-4.5-2.6C490.4,174.7,490.2,174.8,490,174.9 M450.6,202.3l-4.5-2.7c-0.1,0-0.2,0.1-0.3,0.2
		c-0.2,0.1-0.4,0.2-0.6,0.4l4.4,2.7c0.3-0.2,0.5-0.3,0.8-0.5c0,0,0.1-0.1,0.1-0.1C450.5,202.4,450.5,202.3,450.6,202.3 M475,183.5
		l4.4,2.7c0.2-0.1,0.4-0.2,0.6-0.3c0,0,0.1-0.1,0.1-0.1c0.1-0.1,0.2-0.1,0.3-0.2L476,183c-0.2,0.1-0.4,0.1-0.6,0.2
		C475.3,183.3,475.1,183.4,475,183.5 M505,166.7c-0.2,0.1-0.3,0.2-0.5,0.3l4.4,2.7c0.2-0.1,0.5-0.3,0.7-0.4c0,0,0.1,0,0.1,0
		c0.1,0,0.2-0.1,0.3-0.1l-4.5-2.7C505.3,166.6,505.1,166.6,505,166.7 M523.5,161.2l-4.5-2.7c-0.1,0-0.2,0.1-0.3,0.2
		c-0.2,0.1-0.4,0.2-0.6,0.3l4.4,2.7c0.3-0.2,0.5-0.3,0.8-0.5c0,0,0.1-0.1,0.1-0.1C523.5,161.3,523.5,161.2,523.5,161.2 M434.6,211.3
		c0.2-0.1,0.4-0.2,0.6-0.3c0,0,0.1-0.1,0.1-0.1c0.1-0.1,0.3-0.1,0.4-0.2l-4.5-2.7c-0.2,0.1-0.4,0.2-0.6,0.3
		c-0.1,0.1-0.3,0.1-0.4,0.2L434.6,211.3z"/>
	<path fill="#B3B3B3" d="M419.1,209.1l0.4,0.2l110.9-60.4L423.6,93.8l-114.5,52l107.9,62L419.1,209.1 M423.9,97.5l97.5,51.2
		l-101.7,55l-101-58.2L423.9,97.5z"/>
	<path fill="#CECECE" d="M417,207.9l2.1,1.2v0.5v24.9l-2.1-1.3V207.9z"/>
	<path fill="#373737" d="M419.7,203.7l101.7-55l-97.3-51.6l-105.4,48.4L419.7,203.7 M343.6,145.5c-0.1-4,2.3-7.6,7.2-10.6
		c4.9-3,10.8-4.6,17.9-4.9c7-0.3,13.1,1,18.2,3.6c5.1,2.7,7.6,6,7.8,10.1c0.1,4-2.3,7.6-7.1,10.6c-4.9,3-10.9,4.6-17.9,4.9
		c-7,0.3-13.1-1-18.1-3.6C346.3,152.9,343.7,149.5,343.6,145.5 M402.1,110.7c4.9-3,10.8-4.6,17.9-4.9c7-0.3,13.1,1,18.2,3.6
		c5.1,2.7,7.6,6,7.8,10.1c0.1,4-2.3,7.6-7.1,10.6c-4.9,3-10.9,4.6-17.9,4.9c-7,0.3-13.1-1-18.1-3.6c-5.1-2.7-7.7-6-7.8-10.1
		C394.8,117.2,397.2,113.7,402.1,110.7 M421.4,151.1c9.1-0.3,17,1.2,23.5,4.7c6.6,3.5,9.9,7.8,10,13.1c0.1,5.2-2.9,9.8-9.2,13.7
		c-6.3,3.9-14,6-23.1,6.3c-9.1,0.3-17-1.2-23.5-4.7c-6.6-3.5-9.9-7.8-10.1-13c-0.1-5.2,3-9.8,9.3-13.7
		C404.6,153.5,412.3,151.4,421.4,151.1 M490.9,142.8c0.1,3.2-1.8,6-5.6,8.4c-3.9,2.4-8.6,3.7-14.1,3.9c-5.6,0.2-10.3-0.8-14.3-2.9
		c-4-2.1-6-4.8-6.1-7.9c-0.1-3.2,1.8-6,5.7-8.4s8.6-3.7,14.1-3.8c5.6-0.2,10.4,0.8,14.4,2.9C488.8,136.9,490.8,139.6,490.9,142.8
		 M484,135.7c-3.7-1.9-8.2-2.8-13.5-2.6c-5.2,0.2-9.7,1.3-13.3,3.5c-3.6,2.2-5.4,4.7-5.3,7.6c0.1,2.9,2,5.3,5.8,7.2
		c3.8,1.9,8.2,2.8,13.5,2.6c5.2-0.2,9.7-1.3,13.3-3.5c3.6-2.2,5.4-4.7,5.3-7.6C489.6,140,487.7,137.6,484,135.7 M399.3,158.2
		c-6,3.6-9,7.9-8.9,12.8c0.1,4.9,3.3,8.9,9.6,12.1c6.2,3.3,13.7,4.7,22.4,4.4c8.7-0.3,16.1-2.2,22.1-5.9c6-3.6,9-7.9,8.8-12.7
		c-0.1-4.9-3.3-9-9.6-12.2s-13.7-4.7-22.4-4.4C412.7,152.6,405.4,154.6,399.3,158.2 M421.6,159.4c5.2-0.2,9.7,0.7,13.5,2.6
		c3.8,1.9,5.7,4.4,5.8,7.3c0.1,2.9-1.7,5.5-5.3,7.7c-3.6,2.2-8.1,3.4-13.3,3.5c-5.2,0.2-9.7-0.7-13.5-2.6c-3.8-1.9-5.7-4.4-5.8-7.3
		c-0.1-2.9,1.7-5.5,5.3-7.7C412,160.7,416.4,159.5,421.6,159.4 M409.2,163.6c-3.4,2-5.1,4.3-5,6.9c0.1,2.6,1.9,4.8,5.5,6.6
		c3.5,1.8,7.7,2.5,12.7,2.4c4.9-0.1,9.1-1.2,12.5-3.2c3.4-2,5.1-4.3,5-6.9c-0.1-2.6-1.9-4.8-5.4-6.6c-3.5-1.7-7.8-2.5-12.7-2.4
		C416.8,160.6,412.6,161.6,409.2,163.6 M396.2,121.2c0.1,3.7,2.6,6.8,7.4,9.3c4.8,2.5,10.5,3.6,17.2,3.3c6.7-0.2,12.3-1.7,17-4.5
		c4.6-2.8,6.9-6,6.8-9.7c-0.1-3.7-2.6-6.8-7.4-9.3c-4.8-2.5-10.6-3.6-17.2-3.3c-6.7,0.2-12.3,1.7-17,4.5
		C398.4,114.2,396.1,117.5,396.2,121.2 M369.5,158c6.7-0.2,12.4-1.7,17-4.5c4.6-2.8,6.9-6,6.8-9.7c-0.1-3.7-2.6-6.8-7.4-9.3
		c-4.8-2.5-10.6-3.6-17.3-3.4c-6.7,0.2-12.4,1.7-17,4.5c-4.6,2.8-6.9,6-6.8,9.7c0.1,3.7,2.6,6.8,7.4,9.3
		C357,157.2,362.8,158.3,369.5,158z"/>
	<path fill="#C4C4C4" d="M484.8,134.8c-4-2.1-8.8-3.1-14.4-2.9c-5.6,0.2-10.3,1.5-14.1,3.8s-5.7,5.2-5.7,8.4
		c0.1,3.2,2.1,5.8,6.1,7.9c4,2.1,8.8,3.1,14.3,2.9c5.6-0.2,10.3-1.5,14.1-3.9c3.9-2.4,5.7-5.2,5.6-8.4
		C490.8,139.6,488.8,136.9,484.8,134.8 M489.7,142.9c0.1,2.9-1.7,5.4-5.3,7.6c-3.6,2.2-8.1,3.3-13.3,3.5c-5.2,0.2-9.7-0.7-13.5-2.6
		c-3.8-1.9-5.7-4.3-5.8-7.2c-0.1-2.9,1.7-5.4,5.3-7.6c3.6-2.2,8.1-3.3,13.3-3.5c5.2-0.2,9.7,0.7,13.5,2.6
		C487.7,137.6,489.6,140,489.7,142.9 M398.3,157.4c-6.3,3.9-9.4,8.5-9.3,13.7c0.2,5.2,3.5,9.6,10.1,13c6.5,3.5,14.4,5.1,23.5,4.7
		c9.1-0.3,16.8-2.4,23.1-6.3c6.3-3.9,9.4-8.5,9.2-13.7c-0.1-5.2-3.5-9.6-10-13.1c-6.6-3.5-14.4-5-23.5-4.7
		C412.3,151.4,404.6,153.5,398.3,157.4 M421.4,152.4c8.7-0.3,16.2,1.1,22.4,4.4s9.4,7.3,9.6,12.2c0.1,4.9-2.8,9.1-8.8,12.7
		c-6,3.6-13.4,5.6-22.1,5.9c-8.7,0.3-16.2-1.1-22.4-4.4c-6.3-3.2-9.5-7.3-9.6-12.1c-0.1-4.9,2.8-9.2,8.9-12.8
		C405.4,154.6,412.7,152.6,421.4,152.4 M408.4,162.9c-3.6,2.2-5.4,4.7-5.3,7.7c0.1,2.9,2,5.4,5.8,7.3c3.8,2,8.2,2.8,13.5,2.6
		c5.2-0.2,9.7-1.3,13.3-3.5c3.6-2.2,5.4-4.7,5.3-7.7c-0.1-2.9-2-5.4-5.8-7.3c-3.8-1.9-8.2-2.8-13.5-2.6
		C416.4,159.5,412,160.7,408.4,162.9 M421.7,160.4c4.9-0.2,9.2,0.6,12.7,2.4c3.5,1.7,5.3,3.9,5.4,6.6c0.1,2.6-1.6,4.9-5,6.9
		c-3.4,2-7.6,3-12.5,3.2c-4.9,0.2-9.1-0.6-12.7-2.4c-3.6-1.7-5.4-3.9-5.5-6.6c-0.1-2.6,1.6-4.9,5-6.9
		C412.6,161.6,416.8,160.6,421.7,160.4 M394.9,121.2c0.1,4,2.7,7.4,7.8,10.1c5.1,2.7,11.1,3.9,18.1,3.6c7-0.2,13-1.9,17.9-4.9
		c4.9-3,7.3-6.5,7.1-10.6c-0.1-4-2.7-7.4-7.8-10.1c-5.1-2.7-11.1-3.9-18.2-3.6c-7,0.2-13,1.9-17.9,4.9
		C397.2,113.7,394.8,117.2,394.9,121.2 M403,111.5c4.6-2.8,10.3-4.3,17-4.5c6.7-0.2,12.4,0.9,17.2,3.3c4.8,2.5,7.2,5.6,7.4,9.3
		c0.1,3.7-2.1,7-6.8,9.7c-4.6,2.8-10.3,4.3-17,4.5c-6.7,0.2-12.4-0.9-17.2-3.3c-4.8-2.5-7.3-5.6-7.4-9.3
		C396.1,117.5,398.4,114.2,403,111.5 M351.4,155.6c5.1,2.7,11.1,3.9,18.1,3.6c7-0.2,13-1.9,17.9-4.9c4.9-3,7.3-6.5,7.1-10.6
		c-0.1-4-2.7-7.4-7.8-10.1c-5.1-2.7-11.1-3.9-18.2-3.6c-7,0.2-13,1.9-17.9,4.9c-4.9,3-7.3,6.5-7.2,10.6
		C343.7,149.5,346.3,152.9,351.4,155.6 M351.7,135.7c4.6-2.8,10.3-4.3,17-4.5c6.7-0.2,12.4,0.9,17.3,3.4c4.8,2.5,7.2,5.6,7.4,9.3
		c0.1,3.7-2.1,7-6.8,9.7c-4.7,2.8-10.3,4.3-17,4.5c-6.7,0.2-12.4-0.9-17.2-3.4c-4.8-2.5-7.3-5.6-7.4-9.3
		C344.8,141.7,347,138.4,351.7,135.7z"/>
	<path fill="#AAAAAA" d="M309,145.9v150.6L417,360v-12.1v-0.3h0v-31.7v-2.5v-71.9v-6.1v-2.2v-25.3L309,145.9L309,145.9 M379.2,198.4
		l10.6,6.1v3.8l-10.6-6.1V198.4 M379.2,214l10.6,6.1v3.6l-10.6-6.1V214 M389.9,215.9l-10.6-6.1V206l10.6,6.1V215.9 M393.1,214
		l10.6,6.1v3.7l-10.6-6.1V214 M403.7,216.3l-10.6-6.1v-3.8l10.6,6.1V216.3 M393.1,221.9l10.6,6.1v3.6l-10.6-6.1V221.9 M322.9,166.1
		l10.8,6.3v3.9l-10.8-6.2V166.1 M333.7,183.6l-10.8-6.3v-3.7l10.8,6.3V183.6 M322.9,181.8l10.8,6.2v3.8l-10.8-6.2V181.8
		 M349.1,181.2v3.9l-11.9-6.8v-3.9L349.1,181.2 M337.2,181.9l11.9,6.9v3.7l-11.9-6.9V181.9 M337.2,190l11.9,6.8v3.8l-11.9-6.8V190z"
		/>
	<path fill="#6B6B6B" d="M349.1,200.6v-3.8l-11.9-6.8v3.8L349.1,200.6 M337.2,185.7l11.9,6.9v-3.7l-11.9-6.9V185.7 M337.2,174.3v3.9
		l11.9,6.8v-3.9L337.2,174.3 M322.9,185.7l10.8,6.2V188l-10.8-6.2V185.7 M333.7,179.9l-10.8-6.3v3.7l10.8,6.3V179.9 M322.9,170
		l10.8,6.2v-3.9l-10.8-6.3V170 M393.1,225.5l10.6,6.1V228l-10.6-6.1V225.5 M403.7,212.5l-10.6-6.1v3.8l10.6,6.1V212.5 M393.1,217.7
		l10.6,6.1v-3.7l-10.6-6.1V217.7 M389.9,212.2l-10.6-6.1v3.7l10.6,6.1V212.2 M379.2,217.6l10.6,6.1v-3.6l-10.6-6.1V217.6
		 M389.9,208.3v-3.8l-10.6-6.1v3.8L389.9,208.3z"/>
	
		<image display="none" overflow="visible" width="549" height="331" xlink:href="30529E88.jpg"  transform="matrix(1 0 0 1 273.7105 178.8263)">
	</image>
	<polygon fill="#B3B3B3" points="320.3,551.2 81.7,414 81.7,259.6 320.3,397 	"/>
	<polygon fill="#999999" points="417.1,212.9 417.1,311 331.3,261 	"/>
	<g display="none">
		<line display="inline" fill="none" stroke="#FF00FF" stroke-miterlimit="10" x1="351.5" y1="90.2" x2="792.3" y2="343.7"/>
		<line display="inline" fill="none" stroke="#FF00FF" stroke-miterlimit="10" x1="813.5" y1="222.5" x2="368.9" y2="469.4"/>
		<line display="inline" fill="none" stroke="#FF00FF" stroke-miterlimit="10" x1="317.9" y1="173.6" x2="758.8" y2="427.2"/>
		<line display="inline" fill="none" stroke="#FF00FF" stroke-miterlimit="10" x1="224.7" y1="256.2" x2="665.6" y2="509.8"/>
		<line display="inline" fill="none" stroke="#FF00FF" stroke-miterlimit="10" x1="744.8" y1="394.5" x2="300.1" y2="641.3"/>
		<line display="inline" fill="none" stroke="#FF00FF" stroke-miterlimit="10" x1="601.6" y1="472.8" x2="601.6" y2="639.6"/>
		<line display="inline" fill="none" stroke="#FF00FF" stroke-miterlimit="10" x1="870.6" y1="484.7" x2="425.9" y2="731.5"/>
		<line display="inline" fill="none" stroke="#FF00FF" stroke-miterlimit="10" x1="722.5" y1="406.5" x2="722.5" y2="573.2"/>
		<line display="inline" fill="none" stroke="#FF00FF" stroke-miterlimit="10" x1="352.7" y1="330.7" x2="352.7" y2="497.5"/>
		<polygon display="inline" fill="none" stroke="#FF00FF" stroke-miterlimit="10" points="600.9,638 352.3,497.1 352.3,330.3 
			600.9,471.3 		"/>
		<line display="inline" fill="none" stroke="#FF00FF" stroke-miterlimit="10" x1="693.7" y1="290.5" x2="693.7" y2="388.7"/>
		<line display="inline" fill="none" stroke="#FF00FF" stroke-miterlimit="10" x1="698.7" y1="335.9" x2="236.3" y2="547.6"/>
	</g>
	<path fill="#D8D8D8" d="M419.1,348.8L527.6,285l2.7-1.6l0-29.4l-111.1,63V348.8 M419.1,209.6v24.8l0,0l109.2-59.6l2.1-1.2l0-24.6
		l-110.9,60.4L419.1,209.6 M430.6,208.4c0.2-0.1,0.4-0.2,0.6-0.3c1-0.4,1.8-0.3,2.6,0c0,0,0.1,0.1,0.1,0.1c0,0,0.1,0,0.1,0l4.3,2.4
		c0.1,0.1,0.2,0.1,0.3,0.2c0.9,0.6,1.4,1.6,1.4,3.1s-0.5,2.9-1.4,4.4c-0.9,1.5-2,2.6-3.3,3.2c-1.3,0.6-2.4,0.7-3.3,0.1l-4.4-2.5
		c0,0-0.1-0.1-0.1-0.1l0,0h0c-0.9-0.6-1.4-1.6-1.4-3c0-1.5,0.5-2.9,1.4-4.4c0.8-1.3,1.8-2.3,2.9-2.9
		C430.3,208.5,430.5,208.4,430.6,208.4 M522.1,158.6l4.3,2.5c0.1,0,0.2,0.1,0.3,0.2c0.1,0.1,0.2,0.2,0.3,0.2
		c0.7,0.6,1.1,1.6,1.1,2.8c0,1.3-0.4,2.6-1.1,3.9c-0.1,0.2-0.2,0.4-0.3,0.5c-0.9,1.5-2,2.6-3.3,3.2c-1.3,0.6-2.4,0.7-3.3,0.1
		l-4.4-2.5c0,0-0.1-0.1-0.1-0.1l-0.1,0c-0.9-0.6-1.4-1.6-1.4-3s0.5-2.9,1.4-4.4c0.8-1.2,1.7-2.2,2.7-2.8c0.2-0.1,0.4-0.2,0.6-0.3
		c0.1-0.1,0.2-0.1,0.3-0.2c1.1-0.5,2-0.5,2.8-0.1C522,158.5,522,158.6,522.1,158.6C522.1,158.6,522.1,158.6,522.1,158.6
		 M512.9,169.2c0.9,0.6,1.4,1.6,1.4,3.1c0,1.5-0.5,2.9-1.4,4.4c-0.9,1.5-2,2.6-3.3,3.2c-1.3,0.6-2.4,0.6-3.3,0.1l-4.4-2.5
		c0,0-0.1,0-0.1,0l-0.1-0.1c-0.9-0.6-1.4-1.6-1.4-3s0.5-2.9,1.4-4.4c0.8-1.3,1.7-2.3,2.8-2.9c0.2-0.1,0.3-0.2,0.5-0.3
		c0.2-0.1,0.3-0.1,0.5-0.2c1-0.4,1.9-0.4,2.7,0c0,0,0.1,0.1,0.1,0.1c0,0,0.1,0,0.1,0l4.3,2.5C512.7,169.1,512.8,169.2,512.9,169.2
		 M475.4,183.2c0.2-0.1,0.4-0.2,0.6-0.2c1-0.4,1.9-0.4,2.6,0c0,0,0.1,0,0.1,0.1c0,0,0,0,0,0l4.3,2.4c0.1,0,0.2,0.1,0.3,0.2
		c0.9,0.6,1.4,1.6,1.4,3.1c0,1.5-0.5,2.9-1.4,4.4c-0.9,1.5-2,2.5-3.3,3.2c-1.3,0.6-2.4,0.7-3.3,0.1l-4.4-2.5c0,0-0.1,0-0.1,0l0,0
		l0,0c-0.9-0.5-1.4-1.6-1.4-3c0-1.5,0.5-2.9,1.4-4.4c0.8-1.3,1.8-2.3,2.9-2.9C475.1,183.4,475.3,183.3,475.4,183.2 M453.7,202.3
		c0.9,0.6,1.4,1.6,1.4,3.1c0,1.5-0.5,2.9-1.4,4.4c-0.9,1.5-2,2.6-3.3,3.2c-1.3,0.6-2.4,0.7-3.3,0.1l-4.4-2.5c0,0-0.1-0.1-0.1-0.1
		l-0.1,0c-0.9-0.6-1.3-1.6-1.3-3c0-1.5,0.4-2.9,1.3-4.4c0.8-1.2,1.7-2.2,2.7-2.8c0.2-0.1,0.4-0.3,0.6-0.4c0.1-0.1,0.2-0.1,0.3-0.2
		c1.1-0.5,2-0.5,2.8-0.1c0,0,0.1,0.1,0.1,0.1c0,0,0,0,0,0l4.3,2.4C453.5,202.2,453.6,202.3,453.7,202.3 M493.2,174.7
		c0,0,0.1,0.1,0.1,0.1c0,0,0,0,0,0l4.3,2.4c0.1,0.1,0.2,0.1,0.3,0.2c0.9,0.6,1.4,1.6,1.4,3.1c0,1.5-0.5,2.9-1.4,4.4
		c-0.9,1.5-2,2.6-3.3,3.2c-1.3,0.6-2.4,0.7-3.3,0.1l-4.4-2.5c0,0-0.1-0.1-0.1-0.1l0,0h0c-0.9-0.6-1.4-1.6-1.4-3s0.5-2.9,1.4-4.4
		c0.8-1.3,1.8-2.3,2.9-3c0.1-0.1,0.3-0.1,0.4-0.2c0.2-0.1,0.4-0.2,0.6-0.3C491.6,174.3,492.4,174.3,493.2,174.7z"/>
	
		<image display="none" overflow="visible" width="549" height="331" xlink:href="Shape Popout@2x.png"  transform="matrix(1 0 0 1 357.4579 -336.9211)">
	</image>
	<path fill="#939393" d="M424.8,248.4l-0.2-11.8l111.2-60.7v9.1l-5.4,3.1L424.8,248.4z"/>
	<line fill="#939393" stroke="#FCEE21" stroke-width="4" stroke-miterlimit="10" x1="571.3" y1="148.8" x2="606.2" y2="148.8"/>
	<line fill="none" stroke="#009245" stroke-width="3" stroke-miterlimit="10" x1="571.7" y1="184.8" x2="606.6" y2="184.8"/>
	
		<line fill="none" stroke="#9E005D" stroke-width="3" stroke-linejoin="round" stroke-miterlimit="10" x1="573.2" y1="219.6" x2="608.1" y2="219.6"/>
</g>
<g id="Layer_2">
	<g>
		<defs>
			<polygon id="SVGID_1_" points="445.8,328.1 328,259.2 419.1,209.2 308.8,145.8 76.5,251.7 325.2,394.2 			"/>
		</defs>
		<clipPath id="SVGID_2_">
			<use xlink:href="#SVGID_1_"  overflow="visible"/>
		</clipPath>
		<g clip-path="url(#SVGID_2_)">
			<image overflow="visible" width="854" height="512" xlink:href="G800-2CM_slab.jpg"  transform="matrix(0.48 0 0 0.48 194 777)">
			</image>
		</g>
	</g>
	<g>
		<defs>
			<polygon id="SVGID_3_" points="324.1,393.8 76.8,251.4 76.5,256.8 320.3,397.1 320.3,557.5 324.4,559.5 			"/>
		</defs>
		<clipPath id="SVGID_4_">
			<use xlink:href="#SVGID_3_"  overflow="visible"/>
		</clipPath>
		<g transform="matrix(1 -2.980232e-08 2.980232e-08 1 -7.629395e-06 0)" clip-path="url(#SVGID_4_)">
			
				<image overflow="visible" width="854" height="512" xlink:href="G800-2CM_slab.jpg"  transform="matrix(0.4045 0.2585 -0.2585 0.4045 116.2326 164.4957)">
			</image>
		</g>
	</g>
	<polygon opacity="0.3" fill="#333333" points="324.5,393.8 77.2,251.4 76.9,256.8 320.3,397.1 320.3,557.5 324.8,559.5 	"/>
	<g>
		<defs>
			<polygon id="SVGID_5_" points="419.1,209.1 328.4,258.6 331.5,260.6 419,211.7 			"/>
		</defs>
		<clipPath id="SVGID_6_">
			<use xlink:href="#SVGID_5_"  overflow="visible"/>
		</clipPath>
		<g clip-path="url(#SVGID_6_)">
			
				<image overflow="visible" width="854" height="512" xlink:href="G800-2CM_slab.jpg"  transform="matrix(0.48 0 0 0.48 32.0742 133.1592)">
			</image>
		</g>
	</g>
	<polygon opacity="0.35" fill="#333333" points="419.1,209.1 328.4,258.6 331.5,260.6 418.9,211.7 	"/>
	<g>
		<defs>
			<polygon id="SVGID_7_" points="445.3,485.2 324.6,559.5 324.6,393.3 445.3,327.6 			"/>
		</defs>
		<clipPath id="SVGID_8_">
			<use xlink:href="#SVGID_7_"  overflow="visible"/>
		</clipPath>
		<g clip-path="url(#SVGID_8_)">
			
				<image overflow="visible" width="854" height="512" xlink:href="G800-2CM_slab.jpg"  transform="matrix(2.939152e-17 -0.48 -0.48 -2.939152e-17 563.6184 698.1209)">
			</image>
		</g>
		
			<use xlink:href="#SVGID_7_"  overflow="visible" fill="none" stroke="#9E005D" stroke-width="5" stroke-linejoin="round" stroke-miterlimit="10"/>
	</g>
	
		<line fill="none" stroke="#009245" stroke-width="5" stroke-linecap="round" stroke-miterlimit="10" x1="307.3" y1="146.5" x2="417.3" y2="209.9"/>
	
		<line fill="none" stroke="#FCEE21" stroke-width="5" stroke-linecap="round" stroke-linejoin="bevel" stroke-miterlimit="10" x1="76.7" y1="250.5" x2="308.9" y2="145.3"/>
	<rect x="618.3" y="138.9" fill="none" width="115.2" height="96.3"/>
	<text transform="matrix(1 0 0 1 618.3157 150.2616)"><tspan x="0" y="0" font-family="'MyriadPro-Regular'" font-size="16px">Wall Side</tspan><tspan x="0" y="38.4" font-family="'MyriadPro-Regular'" font-size="16px">Appliance Side</tspan><tspan x="0" y="76.8" font-family="'MyriadPro-Regular'" font-size="16px">Waterfall</tspan></text>
</g>
</svg>
